<svg width="18.000000" height="12.000000" viewBox="0 0 18 12" fill="none" xmlns="http://www.w3.org/2000/svg" xmlns:xlink="http://www.w3.org/1999/xlink">
	<desc>
			Created with Pixso.
	</desc>
	<defs/>
	<path id="Vector" d="M1 12L17 12C17.54 12 18 11.55 18 11C18 10.45 17.54 10 17 10L1 10C0.45 10 0 10.45 0 11C0 11.55 0.45 12 1 12ZM1 7L17 7C17.54 7 18 6.54 18 6C18 5.45 17.54 5 17 5L1 5C0.45 5 0 5.45 0 6C0 6.54 0.45 7 1 7ZM0 1C0 1.54 0.45 2 1 2L17 2C17.54 2 18 1.54 18 1C18 0.45 17.54 0 17 0L1 0C0.45 0 0 0.45 0 1Z" fill="#281800" fill-opacity="1.000000" fill-rule="nonzero"/>
</svg>
